<svg xmlns="http://www.w3.org/2000/svg" viewBox="0 0 24 24" fill="none"><path fill-rule="evenodd" clip-rule="evenodd" d="M7 6a5 5 0 1 1 10 0A5 5 0 0 1 7 6Zm5-3a3 3 0 1 0 0 6 3 3 0 0 0 0-6Z" fill="#ffffff" class="fill-000000"></path><path d="M4.062 21a8.001 8.001 0 0 1 11.201-6.307l.913.409.817-1.826-.913-.408A9.968 9.968 0 0 0 12 12C6.477 12 2 16.477 2 22v1h12.354v-2H4.062Z" fill="#ffffff" class="fill-000000"></path><path d="M20 15v3h3v2h-3v3h-2v-3h-3v-2h3v-3h2Z" fill="#ffffff" class="fill-000000"></path></svg>